<svg width="50" height="57" viewBox="0 0 50 57" fill="none" xmlns="http://www.w3.org/2000/svg">
<path d="M1.34963 29.0837C0.75762 25.6551 0.918143 22.1388 1.82008 18.7785C2.72201 15.4181 4.34379 12.2941 6.57304 9.62274C8.80229 6.95143 11.5857 4.79675 14.7304 3.30801C17.8751 1.81927 21.3059 1.03207 24.785 1.00095C28.2642 0.969841 31.7085 1.69556 34.8793 3.12782C38.0501 4.56008 40.8716 6.66463 43.1483 9.29565C45.425 11.9267 47.1024 15.0212 48.0643 18.3649C49.0261 21.7086 49.2495 25.2215 48.7189 28.6601L35.2912 26.5881C35.5215 25.0961 35.4245 23.5719 35.0072 22.1211C34.5898 20.6703 33.862 19.3276 32.8742 18.186C31.8864 17.0444 30.6621 16.1313 29.2864 15.5099C27.9106 14.8884 26.4161 14.5735 24.9065 14.587C23.397 14.6005 21.9084 14.9421 20.5439 15.588C19.1795 16.234 17.9718 17.1689 17.0045 18.3279C16.0373 19.487 15.3336 20.8425 14.9422 22.3005C14.5509 23.7586 14.4813 25.2842 14.7381 26.7719L1.34963 29.0837Z" fill="#F76560"/>
<path d="M1.2919 29.2659C0.750569 32.7028 0.962984 36.2164 1.91443 39.563C2.86588 42.9097 4.5336 46.0095 6.80204 48.6476C9.07048 51.2857 11.8854 53.3991 15.0517 54.8412C18.2181 56.2834 21.6601 57.0199 25.1393 56.9996C28.6186 56.9793 32.0518 56.2029 35.2011 54.7239C38.3505 53.245 41.1406 51.0991 43.3782 48.4347C45.6157 45.7704 47.2473 42.6514 48.1597 39.2939C49.0721 35.9363 49.2436 32.4206 48.6623 28.9902L35.2666 31.2602C35.5189 32.7486 35.4445 34.2741 35.0486 35.7309C34.6527 37.1876 33.9448 38.541 32.9739 39.697C32.003 40.853 30.7924 41.7841 29.426 42.4258C28.0595 43.0675 26.5699 43.4044 25.0602 43.4132C23.5506 43.422 22.0572 43.1025 20.6833 42.4767C19.3095 41.851 18.0881 40.934 17.1039 39.7894C16.1196 38.6447 15.396 37.2997 14.9832 35.8476C14.5703 34.3956 14.4782 32.8711 14.7131 31.3798L1.2919 29.2659Z" fill="#F76560" fill-opacity="0.6"/>
</svg>
